<?xml version="1.0" encoding="UTF-8" standalone="no"?>
<!-- Created with Inkscape (http://www.inkscape.org/) -->

<svg
   version="1.1"
   id="svg1"
   width="1024"
   height="224"
   viewBox="0 0 1024 224"
   sodipodi:docname="brand-colorized.svg"
   inkscape:version="1.4.2 (f4327f4, 2025-05-13)"
   xmlns:inkscape="http://www.inkscape.org/namespaces/inkscape"
   xmlns:sodipodi="http://sodipodi.sourceforge.net/DTD/sodipodi-0.dtd"
   xmlns="http://www.w3.org/2000/svg"
   xmlns:svg="http://www.w3.org/2000/svg">
  <defs
     id="defs1" />
  <sodipodi:namedview
     id="namedview1"
     pagecolor="#ffffff"
     bordercolor="#000000"
     borderopacity="0.25"
     inkscape:showpageshadow="2"
     inkscape:pageopacity="0.0"
     inkscape:pagecheckerboard="0"
     inkscape:deskcolor="#d1d1d1"
     inkscape:zoom="0.86572266"
     inkscape:cx="496.11732"
     inkscape:cy="225.8229"
     inkscape:window-width="1920"
     inkscape:window-height="991"
     inkscape:window-x="-9"
     inkscape:window-y="-9"
     inkscape:window-maximized="1"
     inkscape:current-layer="g1" />
  <g
     inkscape:groupmode="layer"
     inkscape:label="Image"
     id="g1"
     style="display:inline">
    <path
       fill="currentColor"
       d="m 229.28603,186.33014 c -3.37457,-1.36348 -6.38812,-5.94907 -6.38812,-9.72053 0,-6.28479 3.34169,-10.21455 8.7311,-10.2676 2.98777,-0.0294 3.73103,-0.80219 9.86962,-10.26175 3.65119,-5.62647 6.85177,-10.78565 7.11241,-11.46485 0.26063,-0.6792 -0.98862,-3.79108 -2.77612,-6.91529 l -3.24998,-5.68038 -2.09352,2.84975 c -2.17719,2.96367 -27.37674,41.48301 -27.83351,42.54554 -0.51271,1.19266 -48.5403,2.03143 -52.66852,0.91981 -4.09895,-1.10373 -5.76097,-3.5133 -5.19018,-7.52463 0.67915,-4.77284 2.55242,-5.42657 16.39589,-5.72188 l 13.03811,-0.27812 3.26596,-4.5 c 1.79628,-2.475 3.29583,-5.0625 3.33235,-5.75 0.0505,-0.95046 -3.75035,-1.25 -15.86103,-1.25 h -15.92742 l -2.0901,-2.65713 c -2.33197,-2.96463 -2.00767,-5.63327 1.07462,-8.84287 1.76416,-1.83702 3.59342,-2.04074 22.44807,-2.5 l 20.52741,-0.5 3.97167,-6.25 3.97168,-6.25 h -22.42425 -22.42426 l -3.5,3.5 c -3.05983,3.05983 -4.12424,3.5 -8.46364,3.5 -3.99872,0 -5.4638,-0.50016 -7.53656,-2.57293 -7.09024,-7.09023 -1.91902,-18.42707 8.40538,-18.42707 2.43772,0 4.11498,0.95712 7.0096,4 l 3.80511,4 h 24.30608 24.30608 l 3.23397,-4.93995 c 1.77869,-2.71698 3.23398,-5.3922 3.23398,-5.94493 0,-0.66509 -11.24532,-0.80362 -33.25,-0.40961 -37.62301,0.67367 -43.89152,0.24388 -47.38417,-3.24878 -3.5405,-3.54049 -3.28733,-9.689075 0.55725,-13.533655 l 2.92307,-2.923079 55.32693,0.0103 55.32692,0.0103 5.79825,9.239719 c 3.18903,5.081855 11.4305,17.789725 18.31436,28.239725 6.88387,10.45 12.75744,19.55506 13.0524,20.23346 0.48662,1.11925 -17.49078,30.21354 -18.66501,30.2071 -0.275,-0.001 -4.27112,-6.07342 -8.88027,-13.49314 -4.60915,-7.41973 -8.69705,-13.68619 -9.08421,-13.92547 -0.38717,-0.23928 -3.43715,3.93289 -6.77773,9.2715 -5.29777,8.46641 -5.89541,9.90658 -4.67766,11.27217 6.70245,7.51617 -2.68214,19.79673 -12.19201,15.95431 z m 6.78314,-6.67492 c 2.26919,-2.05358 2.3248,-4.13939 0.17375,-6.51627 -2.05358,-2.26919 -4.13939,-2.3248 -6.51627,-0.17375 -2.26919,2.05358 -2.3248,4.13939 -0.17375,6.51627 2.05358,2.26919 4.13939,2.3248 6.51627,0.17375 z m -81,-53 c 4.05383,-3.66867 0.68727,-9.27927 -4.74917,-7.91481 -3.22412,0.8092 -4.25933,4.98718 -1.88562,7.61009 2.16723,2.39477 4.22108,2.4891 6.63479,0.30472 z m 148.57874,51.90669 c -9.2125,-0.16503 -16.75,-0.51923 -16.75,-0.78711 0,-0.26788 9.92868,-15.36994 22.06374,-33.56013 12.13506,-18.1902 22.29241,-33.669 22.5719,-34.39734 0.27949,-0.72834 -6.3008,-11.522935 -14.62287,-23.987994 -8.32206,-12.46505 -15.37757,-23.3062 -15.67889,-24.09143 -0.45606,-1.18849 1.4807,-1.4277 11.55913,-1.4277 h 12.10699 l 0.0316,-9.75 0.0316,-9.75 2.49249,2.83376 c 2.71301,3.08449 20.12125,27.5209 36.2658,50.907279 l 10.17633,14.741045 -22.13391,32.75896 c -12.17365,18.01743 -23.0516,33.77146 -24.17322,35.00896 -1.27506,1.40679 -3.00458,2.16601 -4.615,2.02588 -1.41663,-0.12327 -10.11319,-0.35915 -19.32569,-0.52418 z m 129.25,-17.66837 v -12.58333 h -5.08333 c -3.62124,0 -4.96403,-0.35953 -4.66852,-1.25 0.29107,-0.87711 3.74648,-1.33435 11.58333,-1.53275 9.48995,-0.24026 11.16852,-0.0524 11.16852,1.25 0,1.17137 -1.17161,1.53275 -4.96922,1.53275 h -4.96922 l -0.28078,12.1683 c -0.19934,8.63876 -0.64336,12.28868 -1.53078,12.58333 -0.95576,0.31734 -1.25,-2.54695 -1.25,-12.1683 z m 23.65171,5.66667 c -0.35062,-3.7125 -0.64069,-10.0125 -0.6446,-14 l -0.007,-7.25 h 10 c 8.09907,0 10,0.27745 10,1.45956 0,1.13799 -1.81759,1.52354 -8.25,1.75 -7.80198,0.27467 -8.26808,0.41815 -8.58288,2.64215 -0.18308,1.29344 -0.062,3.43094 0.26905,4.75 0.56889,2.26663 1.01719,2.39829 8.16622,2.39829 5.34469,0 7.44948,0.3444 7.17305,1.17369 -0.25732,0.77194 -2.62224,1.09281 -6.90894,0.93741 -7.52877,-0.27294 -9.18288,0.88384 -8.68473,6.07358 l 0.31823,3.31532 8.75,0.28893 c 6.87565,0.22704 8.75,0.60191 8.75,1.75 0,1.18259 -1.87843,1.46107 -9.8554,1.46107 h -9.85539 z m 33.01496,6.08333 c -0.36667,-0.36666 -0.66667,-6.66666 -0.66667,-14 0,-12.34503 0.13824,-13.33333 1.86503,-13.33333 1.28018,0 3.35053,2.55661 6.60207,8.15268 l 4.73703,8.15269 2.05466,-3.40269 c 10.86899,-17.99994 11.746,-17.72791 10.93756,3.39258 -0.24641,6.43761 -0.84139,11.70474 -1.32219,11.70474 -0.48079,0 -0.87416,-4.47344 -0.87416,-9.94098 0,-5.46754 -0.40095,-10.18879 -0.891,-10.49165 -0.49004,-0.30287 -2.76014,2.59557 -5.04465,6.44098 -2.28452,3.84541 -4.3266,6.99165 -4.53797,6.99165 -0.21136,0 -2.55377,-3.48344 -5.20534,-7.74098 l -4.82104,-7.74098 -0.28275,11.24098 c -0.26037,10.3513 -0.74877,12.37612 -2.55058,10.57431 z m 73.03597,0.036 c -0.38645,-0.38647 -0.70264,-6.70266 -0.70264,-14.036 0,-11.18518 0.24167,-13.33333 1.5,-13.33333 1.25306,0 1.5,2.05088 1.5,12.45794 v 12.45793 l 7.75,0.29207 c 4.52136,0.17039 7.64837,0.70866 7.50605,1.29206 -0.27809,1.13996 -16.48036,1.94235 -17.55341,0.86931 z m 28.29736,-0.21226 c 0,-0.46362 2.61578,-6.65112 5.81285,-13.75 4.30061,-9.54925 6.27709,-12.90707 7.59735,-12.90707 1.30849,0 3.20652,3.13062 7.11536,11.73611 2.93196,6.45486 5.61848,12.64236 5.97003,13.75 1.06386,3.35193 -1.30222,2.28078 -3.83493,-1.73611 l -2.36444,-3.75 -7.09656,0.33004 c -6.88362,0.32013 -7.1571,0.43266 -9.11438,3.75 -1.86445,3.16 -4.08528,4.56092 -4.08528,2.57703 z m 18.99023,-10.40707 c -0.013,-1.66428 -4.73334,-11.75 -5.49925,-11.75 -0.68105,0 -5.49098,10.53661 -5.49098,12.02851 0,0.53432 2.475,0.97149 5.5,0.97149 3.73854,0 5.49687,-0.40033 5.49023,-1.25 z m 23.66148,4.5 c -0.35062,-3.7125 -0.64069,-9.3375 -0.6446,-12.5 l -0.007,-5.75 h -5.08333 c -3.62124,0 -4.96403,-0.35953 -4.66852,-1.25 0.29107,-0.87711 3.74648,-1.33435 11.58333,-1.53275 9.31443,-0.23581 11.16852,-0.0374 11.16852,1.19521 0,1.05373 -1.36341,1.56544 -4.75,1.78275 l -4.75,0.30479 -0.28078,12.25 c -0.15443,6.7375 -0.65186,12.25 -1.10539,12.25 -0.45354,0 -1.11149,-3.0375 -1.46212,-6.75 z m 23.34829,-7.25 v -14 h 10 c 8.22222,0 10,0.26667 10,1.5 0,1.21569 -1.61111,1.5 -8.5,1.5 h -8.5 v 4.95794 4.95793 l 7.50733,0.29207 c 4.1435,0.16119 7.50732,0.74013 7.50732,1.29206 0,0.55193 -3.36382,1.13087 -7.50732,1.29206 l -7.50733,0.29207 v 4.45793 4.45794 h 8.5 c 6.88889,0 8.5,0.28431 8.5,1.5 0,1.23333 -1.77778,1.5 -10,1.5 h -10 z m -128,-0.60589 v -13.60588 l 7.92364,0.35983 c 9.67194,0.43923 13.07636,2.76036 13.07636,8.91547 0,6.24232 -2.54157,8.28868 -10.87967,8.75983 l -7.12033,0.40233 v 4.38716 c 0,3.23302 -0.3946,4.38715 -1.5,4.38715 -1.25984,0 -1.5,-2.17843 -1.5,-13.60589 z m 16.25,0.44289 c 2.26576,-1.17479 2.34474,-7.09852 0.11926,-8.9455 -0.93667,-0.77737 -4.02239,-1.36151 -7.25,-1.37245 l -5.61926,-0.019 -0.30765,5.40535 c -0.20732,3.64264 0.11879,5.6802 1,6.24816 1.4637,0.94339 9.36238,0.081 12.05765,-1.31651 z m -413.9912,-4.54158 c -2.65836,-0.51266 -5.2588,-3.89679 -5.2588,-6.84361 0,-4.01184 4.00571,-6.45181 10.59194,-6.45181 7.43211,0 10.41431,1.80971 10.39275,6.3067 -0.0212,4.41937 -1.07922,5.69576 -5.5884,6.74176 -4.02669,0.93408 -6.28879,0.98918 -10.13749,0.24696 z m 150.3462,-40.81161 C 272.9392,100.86011 265.23818,88.935106 264.38954,87.294016 l -1.54299,-2.98381 h -31.02259 -31.0226 l -1.36235,-3.24009 c -0.7493,-1.78206 -1.15102,-3.58206 -0.89271,-4 0.2583,-0.41795 8.54309,-0.75991 18.41063,-0.75991 h 17.94098 v -2.5 -2.5 h -21.31144 c -19.80696,0 -21.46042,-0.1388 -23.42187,-1.96617 -4.72965,-4.40634 -3.36941,-10.68217 2.74504,-12.66506 2.15783,-0.69977 3.45649,-1.74864 3.40494,-2.75 -0.31052,-6.03188 0.5603,-5.61877 -11.84409,-5.61877 -11.15415,0 -11.47698,-0.063 -13.5,-2.63486 -1.13992,-1.44917 -2.07258,-3.41349 -2.07258,-4.36514 0,-0.95166 0.93266,-2.91597 2.07258,-4.36514 l 2.07258,-2.63486 h 46.85599 c 41.78202,0 47.03072,0.17473 48.46955,1.61356 3.17693,3.17692 47.5293,70.492714 47.5293,72.137564 0,1.38066 -17.67926,29.24888 -18.55513,29.24888 -0.14822,0 -7.27616,-10.58229 -15.83987,-23.51619 z m 1.145,-28.728644 c 1.91408,-1.53135 1.48688,-6.51829 -0.75,-8.75517 -3.80963,-3.80964 -10.01589,-1.38238 -9.98469,3.90499 0.0348,5.89207 6.04062,8.60565 10.73469,4.85018 z m -34.06445,-6.92948 c 2.89737,-2.72194 2.94355,-5.52714 0.14014,-8.51124 -2.54508,-2.70911 -4.5342,-2.90735 -7.60318,-0.75775 -4.47275,3.13284 -1.7962,11.4433 3.68555,11.4433 0.80467,0 2.50454,-0.97844 3.77749,-2.17431 z m 24.63725,-5.07569 c 1.54478,-1.1325 0.97522,-2.35025 -6.05887,-12.95425 l -7.76393,-11.70425 -19.81955,-0.0457 -19.81955,-0.0457 0.31955,2.25 c 0.31479,2.21649 0.58746,2.25745 18.30994,2.75 l 17.99038,0.5 7.00962,10.24488 c 3.85528,5.63468 7.2611,10.24718 7.56848,10.25 0.30738,0.003 1.32615,-0.55738 2.26393,-1.24488 z m -56.73562,-19.24272 c 3.39836,-5.18655 -1.40837,-11.01129 -7.35965,-8.91834 -6.44614,2.26699 -4.62513,11.41106 2.27247,11.41106 2.57798,0 3.8681,-0.63216 5.08718,-2.49272 z m 291.63336,64.451544 c -4.07078,-0.82243 -10.2458,-4.32032 -10.1983,-5.77691 0.0122,-0.37505 0.85342,-1.76302 1.86931,-3.08438 l 1.84707,-2.40247 4.44642,2.15247 c 6.85856,3.32017 13.81496,2.43381 13.81496,-1.76027 0,-2.51483 -1.76979,-3.77611 -6.5,-4.63236 -10.23843,-1.85333 -14.5,-5.371155 -14.5,-11.969385 0,-8.272959 7.02937,-13.438669 16.51736,-12.138199 9.02182,1.23658 12.39475,4.66712 9.05689,9.21155 -1.37327,1.86967 -1.5354,1.87671 -4.40429,0.19113 -4.13864,-2.4316 -10.78777,-2.33265 -12.13279,0.18055 -1.4847,2.774179 0.53659,4.383159 8.10726,6.453519 9.29663,2.54235 12.85557,6.093575 12.85557,12.827685 0,8.12322 -9.48513,13.0289 -20.77946,10.74707 z M 423.89791,98.867705 V 79.310206 h 15 15 v 4 4 h -10.5 -10.5 v 3.963789 3.96379 l 9.75,0.28621 9.75,0.28621 v 3.5 3.500005 l -9.70691,0.28569 -9.70691,0.28569 -0.29309,7.21431 -0.29309,7.21431 -4.25,0.3075 -4.25,0.3075 z m 30,18.863855 c 0,-0.31826 1.79234,-4.48076 3.98298,-9.25 2.19064,-4.76924 5.93407,-13.396355 8.31872,-19.171354 4.26748,-10.33471 4.3911,-10.50473 7.85261,-10.80056 2.02013,-0.17265 3.96326,0.25294 4.56575,1 0.57688,0.71531 4.64306,9.73806 9.03594,20.050559 l 7.98707,18.750005 h -4.71147 c -4.61004,0 -4.7399,-0.0861 -6.0316,-4 l -1.32012,-4 h -9.18825 -9.18825 l -1.57124,4 c -1.47557,3.75643 -1.81972,4 -5.65169,4 -2.24425,0 -4.08045,-0.26039 -4.08045,-0.57865 z m 26,-15.79692 c 0,-0.20656 -1.14866,-2.972905 -2.55258,-6.147425 -1.48013,-3.34682 -2.92059,-5.394799 -3.42849,-4.87443 -0.48174,0.49358 -1.80151,3.25992 -2.93282,6.14742 l -2.05693,5.250005 h 5.48541 c 3.01698,0 5.48541,-0.16901 5.48541,-0.37557 z m 64,0.87557 V 87.310206 h -6 -6 v -4 -4 h 16 16 v 3.9501 3.95009 l -5.75,0.29991 -5.75,0.2999 -0.27605,15.250004 -0.27604,15.25 h -3.97396 -3.97395 z m 47.03944,-2.75 c -3.48013,-10.037504 -6.54622,-18.839554 -6.81353,-19.560104 -0.3672,-0.98983 0.67731,-1.2343 4.27266,-1 l 4.75867,0.3101 3.77205,11.817339 c 2.07463,6.49954 3.9955,12.040785 4.2686,12.313885 0.27309,0.2731 1.47402,-2.56971 2.66872,-6.317345 1.1947,-3.74764 3.09582,-9.401379 4.22471,-12.563879 2.00949,-5.62942 2.13212,-5.75 5.84778,-5.75 h 3.79525 l 4.16565,12.499999 c 2.29111,6.875 4.48381,12.500005 4.87268,12.500005 0.38887,0 2.26607,-5.512505 4.17154,-12.250005 l 3.46451,-12.249999 4.24563,-0.3075 c 2.3351,-0.16912 4.24564,0.0432 4.24564,0.47186 0,0.42865 -2.81043,9.25 -6.24539,19.603009 l -6.24539,18.823645 -3.94126,-0.2955 -3.94125,-0.29551 -4.03338,-12.25 c -2.21835,-6.737505 -4.34709,-12.250005 -4.73053,-12.250005 -0.38343,0 -2.57169,5.625 -4.8628,12.500005 l -4.16565,12.5 h -3.73369 -3.7337 z m 57.78951,11.25 c -0.0941,-3.85 -0.17106,-9.7 -0.17106,-13.000005 0,-3.3 0.077,-8.924999 0.17106,-12.499999 l 0.17105,-6.5 h 14.5 14.5 v 3.46502 3.46501 l -10.25,0.28499 -10.25,0.28498 -0.3075,4.249999 -0.3075,4.25 h 9.5575 c 8.755,0 9.5575,0.16106 9.5575,1.91821 0,4.702295 -0.75477,5.081795 -10.10699,5.081795 h -8.89301 v 4.5 4.5 h 11 11 v 3.5 3.5 h -15 -15 z M 685.89791,98.810205 V 79.310206 h 11.03212 c 11.87407,0 16.99576,1.31506 18.88739,4.8496 1.67821,3.13577 1.27935,7.627869 -0.92627,10.431859 l -2.00675,2.55118 3.00675,3.006765 c 5.48873,5.48872 3.5829,14.47026 -3.65437,17.22186 -1.35799,0.51631 -7.83977,0.93874 -14.40397,0.93874 h -11.9349 z m 23.60902,10.020025 c 1.76798,-2.41786 1.74595,-3.0222 -0.18045,-4.94859 -1.12616,-1.12617 -3.53463,-1.57143 -8.5,-1.57143 h -6.92857 v 4.61285 4.61284 l 7.10902,-0.40169 c 5.52918,-0.31243 7.41813,-0.82444 8.5,-2.30398 z m -2.2399,-15.375405 c 0.93748,-1.0359 1.4022,-2.57698 1.05217,-3.489149 -0.72316,-1.88451 -7.32473,-3.91798 -11.24751,-3.46454 -2.37227,0.27422 -2.70846,0.78833 -2.98128,4.559069 l -0.3075,4.25 h 5.90251 c 4.47917,0 6.30742,-0.44741 7.58161,-1.85538 z m 36.67551,6.605385 c 4.32694,-10.037504 8.22451,-18.802424 8.66127,-19.477604 0.43675,-0.67518 2.50102,-1.40278 4.58725,-1.6169 4.52441,-0.46435 3.80454,-1.60284 13.1799,20.844499 3.67541,8.800005 6.93108,16.589555 7.23481,17.310105 0.42046,0.99748 -0.59223,1.23611 -4.24377,1 -4.49125,-0.29039 -4.87042,-0.53251 -5.96683,-3.8101 l -1.1708,-3.5 -9.04029,-0.2859 -9.04028,-0.2859 -1.61485,4.0359 c -1.54531,3.86211 -1.80515,4.0359 -6.03421,4.0359 h -4.41936 z m 17.894,0.5 c -0.0338,-0.962505 -1.06405,-3.971025 -2.28955,-6.685595 l -2.22817,-4.935599 -2.21046,5.318949 c -3.13565,7.545225 -2.99148,8.052245 2.28955,8.052245 3.64243,0 4.4883,-0.3335 4.43863,-1.75 z m 21.06137,-1.750005 V 79.310206 h 10.30366 c 9.06145,0 10.92554,0.3099 15.46202,2.57052 6.1533,3.06632 9.07625,7.29918 9.91175,14.353669 1.12413,9.491505 -4.67988,18.594065 -13.4001,21.015685 -2.07753,0.57694 -7.93983,1.05149 -13.02733,1.05455 l -9.25,0.006 z m 20.43444,10.524935 c 3.15218,-1.19846 6.55679,-6.55539 6.56182,-10.324595 0.01,-7.14201 -5.42391,-11.700339 -13.9466,-11.700339 h -5.04966 v 11.499999 11.500005 h 4.9349 c 2.7142,0 6.08899,-0.43878 7.49954,-0.97507 z M 825.89791,98.810205 V 79.310206 h 4.52181 c 4.46043,0 4.57521,0.0848 8.45609,6.25 7.25926,11.532069 6.05882,11.333459 11.99439,1.98439 5.20708,-8.20164 5.24479,-8.23439 9.47958,-8.23439 h 4.2517 l 0.64222,8.25 c 0.35322,4.537499 0.64492,13.312504 0.64822,19.500004 l 0.006,11.25 h -4.5 -4.5 l -0.0311,-12.75 -0.0311,-12.750005 -5.21894,8.228355 c -2.87041,4.5256 -5.56787,8.2381 -5.99434,8.25 -0.42648,0.0119 -2.52435,-2.79085 -4.66193,-6.22835 -7.32109,-11.773235 -6.96782,-11.899075 -7.01812,2.5 l -0.0445,12.75 h -4 -4 z m 49,0 V 79.310206 h 4 4 v 19.499999 19.500005 h -4 -4 z m 18,0 V 79.310206 h 3.96578 c 3.88041,0 4.15487,0.24705 12.75,11.476739 l 8.78422,11.476745 0.28174,-11.476745 0.28173,-11.476739 h 4.46827 4.46826 v 19.499999 19.500005 h -3.93448 c -3.88386,0 -4.05433,-0.16341 -13.25,-12.7017 l -9.31552,-12.701705 -0.27988,12.701705 -0.27987,12.7017 h -3.97013 -3.97012 z M 95.820988,106.38713 c -1.607699,-1.60769 -2.923079,-3.65504 -2.923079,-4.54966 0,-2.471655 2.721849,-7.206555 4.544799,-7.906085 0.89033,-0.34165 6.696282,-0.62118 12.902132,-0.62118 9.90087,0 11.60619,0.25394 13.91821,2.07258 3.72223,2.9279 3.72223,8.926945 0,11.854845 -2.31693,1.8225 -4.01549,2.07258 -14.07692,2.07258 -11.313162,0 -11.475002,-0.0329 -14.365142,-2.92308 z M 156.39791,80.641816 c -1.1,-0.22521 -2.95553,-0.61124 -4.12341,-0.85783 -3.03225,-0.64024 -4.82632,-5.39263 -3.30021,-8.74207 1.78513,-3.91793 5.57701,-4.97319 16.45779,-4.58012 8.71019,0.31465 9.82989,0.57717 11.5553,2.70919 2.38679,2.94929 2.46224,7.34732 0.16053,9.35788 -1.73707,1.51733 -16.37757,3.00816 -20.75,2.11295 z m -24.5,-32.15355 c -5.81744,-0.83867 -8.17172,-8.00634 -4,-12.17806 1.80247,-1.80247 3.33333,-2 15.5,-2 12.16667,0 13.69753,0.19753 15.5,2 2.49072,2.49072 2.57612,7.06695 0.18695,10.01745 -1.67221,2.06509 -2.70149,2.24998 -13.25,2.38003 -6.29032,0.0776 -12.56195,-0.0212 -13.93695,-0.21942 z"
       id="path1" />
  </g>
</svg>
